<?xml version="1.0" encoding="utf-8"?>
<!-- Generator: Adobe Illustrator 19.0.0, SVG Export Plug-In . SVG Version: 6.00 Build 0)  -->
<svg version="1.1" id="Layer_1" xmlns="http://www.w3.org/2000/svg" xmlns:xlink="http://www.w3.org/1999/xlink" x="0px" y="0px"
	 viewBox="0 0 250 250" style="enable-background:new 0 0 250 250;" xml:space="preserve">
<style type="text/css">
	.st0{fill:#FFFFFF;stroke:#808080;stroke-width:13;stroke-miterlimit:10;}
	.st1{fill:#7C1616;}
	.st2{fill:#DBB6B6;}
	.st3{fill:#8E6464;}
	.st4{fill:#47260B;}
	.st5{fill:#663819;}
	.st6{fill:#8C6239;}
	.st7{fill:#754C24;}
	.st8{fill:#C17878;}
	.st9{fill:#FFFFFF;}
	.st10{fill:#FF7300;}
	.st11{fill:#89564A;}
</style>
<rect id="XMLID_25_" x="5.5" y="5.6" class="st0" width="239.3" height="247.9"/>
<path id="XMLID_17_" class="st1" d="M164.2,166.3c0,0,34.8,0.7,46.3,10.5s36.5,36.4,36.5,36.4l13,15.4l2,28.8l-274,1.3l1.8-28.3
	L28.5,183c0,0,13.3-16.8,54-14.5s44-6.3,44-6.3L164.2,166.3z"/>
<path id="XMLID_16_" class="st2" d="M154,141v16c0,0,0.8,7.5,12.3,9.8s-3,34.6-38.3,34.5s-56.7-30.3-45.5-32.8
	c15.7-3.4,19.1-10.8,16.8-31.3C97,116.8,154,141,154,141z"/>
<path id="XMLID_30_" class="st3" d="M154,144.7l-54.7-6.3c0,0,8.3,16.9,22.9,21.7S150.9,154,154,144.7z"/>
<polygon id="XMLID_1_" class="st4" points="99.3,107.8 80,93.4 75.1,138.3 78.9,168.3 92.1,162.3 100.3,123.9 "/>
<path id="XMLID_13_" class="st4" d="M88.2,117.5l11.1,19.8c0,0-2.7,17.8-14.5,18c0,0,3-5.5,0-19.6L88.2,117.5z"/>
<path id="XMLID_2_" class="st2" d="M148,30.3c0,0,20.5,1.8,26,17.5c0,0-1.5,17.5,0,22.8s3.5,19.3,2,28s0.3,19-8.3,32.3
	s-30.8,25.8-37.3,25.8s-22-8.3-35-22S85,66.5,85,66.5L107.5,33L148,30.3z"/>
<path id="XMLID_4_" class="st5" d="M161.8,34.4c-0.7-1.3-28.8,3.6-49.3,24.1S91,108.5,83.3,118s-13,9.5-14,7.5S68.3,115,71,108
	c0,0-7-49.5,6-69.5s26-29,39.5-31.8s38.8-1.5,47.3,14c0,0,14.3,7.8,15.5,30.8s7.3,37.3-4,54.2C175.2,105.7,179.5,68.8,161.8,34.4z"
	/>
<path id="XMLID_3_" class="st6" d="M83.8,132.5c0,0-14.8,13-13.8,21.5s2,10.5,2,10.5s13.8-8.3,15.5-12.5S83.8,132.5,83.8,132.5z"/>
<path id="XMLID_5_" class="st7" d="M83.5,173.3c0,0-21.2,9.5-14.9,28c0,0,17-9.3,16.2-17S83.5,173.3,83.5,173.3z"/>
<path id="XMLID_6_" class="st5" d="M68.6,223.5c0,0,17.4-12.3,9.4-28.7c0,0-8.4,2.2-10.6,11.7C65.3,216,68.6,223.5,68.6,223.5z"/>
<path id="XMLID_7_" class="st5" d="M70,185.3c0,0-7.6-14.2,2-20.8s12.8-9.2,12.8-9.2s5.9,4.5,3,11S70,185.3,70,185.3z"/>
<path id="XMLID_8_" class="st7" d="M78.9,226.3l2.6-5.5c0,0-4.2-1.5-5.4-7c0,0-4.4,8.8-7.5,9.8L78.9,226.3z"/>
<path id="XMLID_9_" class="st7" d="M86.6,111.9c0,0,5.4,20.8-3.3,23.6s-8.2,9.3-8.2,9.3S66,137,72,126.5
	C78,116,86.6,111.9,86.6,111.9z"/>
<path id="XMLID_10_" class="st5" d="M81.5,220.8c0,0,10.7-3.3,6.3-15.3c0,0-7.6,4.2-7.7,1.8l-4,8.3C76.1,215.6,77,220.8,81.5,220.8z
	"/>
<path id="XMLID_12_" class="st6" d="M84.3,187.3c0,0,16.4,6.9,4.3,21.1c0,0-8.6,3.3-9.7,0c0,0,2.2-2.1-0.9-13.5
	C78,194.8,83.8,190.3,84.3,187.3z"/>
<path id="XMLID_11_" class="st5" d="M85.6,168.5c0,0,11.4,3,10.7,10.3s-5.3,13.6-5.3,13.6l-6.6-5.1c0,0-0.1-9.2-2.4-13.2L85.6,168.5
	z"/>
<path id="XMLID_14_" class="st7" d="M93.1,148.5c0,0,13.3,11,1.1,24.8c0,0-4.1-3.8-8.6-4.8c0,0,5.4-7.7-0.7-13.2
	C84.8,155.3,93.9,152.3,93.1,148.5z"/>
<path id="XMLID_15_" class="st5" d="M67.4,226.3c0,0-26.4,19.5-8.4,43.3s29.6,0,29.6,0s-5.8,5-10.6,1.5c-4.8-3.5,2.7-8.3,3.5-20.3
	s-3.6-20-3.6-20L67.4,226.3z"/>
<g id="XMLID_18_">
	<path id="XMLID_37_" d="M99.3,84.3c0,0,0.1-0.4,0.3-1c0.3-0.6,0.7-1.5,1.6-2.3c0.4-0.4,0.9-0.9,1.5-1.3c0.3-0.2,0.6-0.4,0.9-0.6
		c0.3-0.2,0.6-0.3,1-0.5c0.3-0.2,0.7-0.3,1.1-0.4c0.4-0.1,0.8-0.2,1.1-0.3c0.8-0.2,1.5-0.2,2.4-0.2l1.1,0.1c0.4,0,0.8,0.1,1.2,0.2
		c0.8,0.2,1.5,0.4,2.2,0.7c1.4,0.6,2.5,1.4,3.3,2.3c0.8,0.8,1.3,1.7,1.6,2.3c0.3,0.6,0.4,1,0.4,1s-0.3-0.2-0.8-0.6
		c-0.5-0.4-1.3-0.8-2.2-1.3c-0.9-0.5-2-0.9-3.2-1.2c-0.6-0.1-1.2-0.2-1.8-0.3c-0.3,0-0.6-0.1-0.9-0.1l-1.1,0c-0.5,0-1.3,0-1.9,0.1
		c-0.6,0.1-1.2,0.2-1.8,0.3c-0.3,0.1-0.6,0.1-0.9,0.2c-0.3,0.1-0.5,0.2-0.8,0.3c-0.5,0.2-1,0.4-1.5,0.6c-0.9,0.5-1.6,0.9-2.1,1.3
		C99.6,84,99.3,84.3,99.3,84.3z"/>
</g>
<g id="XMLID_19_">
	<path id="XMLID_35_" d="M144.3,84.3c0,0,0.1-0.4,0.3-1c0.3-0.6,0.7-1.5,1.6-2.3c0.4-0.4,0.9-0.9,1.5-1.3c0.3-0.2,0.6-0.4,0.9-0.6
		c0.3-0.2,0.6-0.3,1-0.5c0.3-0.2,0.7-0.3,1.1-0.4c0.4-0.1,0.8-0.2,1.1-0.3c0.8-0.2,1.5-0.2,2.4-0.2l1.1,0.1c0.4,0,0.8,0.1,1.2,0.2
		c0.8,0.2,1.5,0.4,2.2,0.7c1.4,0.6,2.5,1.4,3.3,2.3c0.8,0.8,1.3,1.7,1.6,2.3c0.3,0.6,0.4,1,0.4,1s-0.3-0.2-0.8-0.6
		c-0.5-0.4-1.3-0.8-2.2-1.3c-0.9-0.5-2-0.9-3.2-1.2c-0.6-0.1-1.2-0.2-1.8-0.3c-0.3,0-0.6-0.1-0.9-0.1l-1.1,0c-0.5,0-1.3,0-1.9,0.1
		c-0.6,0.1-1.2,0.2-1.8,0.3c-0.3,0.1-0.6,0.1-0.9,0.2c-0.3,0.1-0.5,0.2-0.8,0.3c-0.5,0.2-1,0.4-1.5,0.6c-0.9,0.5-1.6,0.9-2.1,1.3
		C144.6,84,144.3,84.3,144.3,84.3z"/>
</g>
<path id="XMLID_21_" class="st7" d="M144.2,73.1c0,0,4.7-5.1,11.2-5.1s14.7,3,14.7,3H154c0,0-5.8,1.3-8,3.8
	C143.8,77.4,144.2,73.1,144.2,73.1z"/>
<path id="XMLID_20_" class="st7" d="M120.1,73.1c0,0-4.7-5.1-11.2-5.1s-14.7,3-14.7,3h16.1c0,0,5.8,1.3,8,3.8S120.1,73.1,120.1,73.1
	z"/>
<path id="XMLID_27_" class="st8" d="M150.7,119.3c0,0-4,12.2-15.3,13.9s-17.8-2.8-20.6-6.7c-2.8-3.9-3.4-6.2-3.4-6.2l14.5,4.2
	l11.6-0.6l10.8-3.1L150.7,119.3z"/>
<path id="XMLID_23_" class="st8" d="M111.4,119.8l39.3-0.5C150.7,119.3,138.2,126.6,111.4,119.8z"/>
<path id="XMLID_24_" class="st9" d="M111.4,119.8c0,0,23.1,5,39.3-0.5c0,0-4.3,5.5-9.7,7.2c-5.4,1.8-11.7,2.8-18.2,0.5
	C116.3,124.8,111.4,119.8,111.4,119.8z"/>
<path id="XMLID_31_" class="st6" d="M108.8,57c0,0,17.5-17.5,30.3-20.1c0,0-4.1-1.5-9.3,0.4c0,0,4.5-5.8,11.3-7.1
	c0,0-8.3,0.7-12,2.6c0,0,2.7-5,6.1-5.7c0,0-5.9,1.3-7.7,2.3c0,0,5.5-5.5,9.3-6.2c3.8-0.7-11.1,2.7-11.1,2.7s1.8-1.9,3.5-2.4
	l-5.3,0.3c0,0,2.3-3,5.3-4.2c0,0-5.5,0.1-9.1,1.7c0,0,0.8-3.8,4.1-4.7c0,0-5.4,0.5-7.7,1.6c0,0,0.3-1.9,1.6-2.4c0,0-2.7-0.1-5.6,1.3
	c0,0,0.3-1.8,1.7-2.4c0,0-2.8,0-7.2,1.7c0,0,1.6-2.9,2.7-3.5c0,0-4.3,1-6.2,1.8c-1.9,0.8-15.9,12.6-19.3,18
	c-3.3,5.4-4.4,8.5-4.4,8.5s5.2-6.7,6.5-6.8c0,0-6.1,9-6.5,10.9c0,0,5.8-6.6,6.8-7c0,0-1.9,4.3-2.3,6.1c0,0,5.1-3.9,6.3-4.3
	c0,0-4.8,7.3-4.9,9.2c0,0,4.7-5.2,6-5.4c0,0-4.7,7.9-4.8,10.3c0,0,4.6-4.8,5.7-5.1c0,0-1.7,3.8-1.4,5.2c0,0,3.8-3.7,4.8-3.9
	c0,0-3.3,7.3-3.1,10.3c0,0,4.8-7.4,6.3-7.8c0,0-2.9,6.3-2.6,7.8c0,0,2.7-2.5,3.9-3.1l-0.7,3.1l3.3-2.5c0,0-2.3,4.8-2.3,6.2
	C101,64.2,104.3,61.2,108.8,57z"/>
<path id="XMLID_32_" class="st6" d="M70.8,125.5c0,0-4.9-16.6,11.8-23.8c0,0,4.9-1.9,7.1-3.9c0,0-1.8,10.2-3.9,13
	c-2.1,2.8-5,1.6-6.9,4.3C77,117.8,70.9,123.6,70.8,125.5z"/>
<path id="XMLID_22_" class="st10" d="M69.5,228.3l7.3,3.2c0,0,2.1-0.1,3.4-2.2c1.3-2.1-1.4-3.8-1.4-3.8l-9.8-2.7
	c0,0-1.5-0.3-2.3,1.3C65.9,225.8,65.3,226,69.5,228.3z"/>
<line id="XMLID_26_" class="st4" x1="324.5" y1="106.5" x2="259.3" y2="47.3"/>
<path id="XMLID_29_" class="st11" d="M114.6,105.3c0,0,8.7,1,12.9,4.8c3.8,3.3,6.5,0.8,7.1,0.1c0.1-0.1,0.2-0.2,0.3-0.3
	c2-1.7,8.3-5.4,11.4-4.6c0,0-7.5,4.8-11,6.4c-3.5,1.6-4.8,1.7-8.3,0C123.5,110,119.9,107.3,114.6,105.3z"/>
</svg>
